<svg t="1599282975340" class="icon" viewBox="0 0 1911 1024" version="1.1" xmlns="http://www.w3.org/2000/svg" p-id="2658" width="128" height="128"><path d="M0 819.2c0 72.817778 182.044444 141.084444 478.139733 177.493333 296.095289 36.408889 660.184178 36.408889 955.1872 0C1729.422222 960.284444 1911.466667 892.017778 1911.466667 819.2s-182.044444-141.084444-478.139734-177.493333c-296.095289-36.408889-660.184178-36.408889-955.1872 0C182.044444 678.115556 0 745.244444 0 819.2" fill="#F5F5F5" p-id="2659"></path><path d="M477.866667 485.603556c108.452978 5.779911 217.634133 8.669867 327.543466 8.669866 97.348267 233.904356 274.6368 119.648711 307.313778-8.692622 57.344-12.652089 164.317867-9.739378 320.876089 8.692622V978.488889H477.866667V485.603556z" fill="#FAFAFA" p-id="2660"></path><path d="M901.620622 846.279111v-2.275555 2.275555z m55.682845-57.799111c-31.288889 0-56.32 24.257422-56.32 55.523556v0.796444a10.695111 10.695111 0 0 0 10.945422 10.945422 10.695111 10.695111 0 0 0 10.945422-10.945422v-0.773689c0-17.999644 14.859378-33.632711 33.632711-33.632711a33.905778 33.905778 0 0 1 33.655467 33.632711v0.773689a10.695111 10.695111 0 0 0 10.922667 10.945422 10.695111 10.695111 0 0 0 10.968177-10.945422v-0.773689c1.570133-29.741511-24.257422-55.546311-54.749866-55.546311z m-130.616889-86.8352c-15.655822-3.117511-38.343111-3.117511-43.8272 13.312-3.117511 10.171733 13.312 10.945422 28.171378 14.859378 11.719111 3.117511 17.976889 9.375289 17.2032 10.945422-3.140267 3.913956-21.117156-3.117511-36.772978 2.343822-15.633067 5.461333-12.515556 19.569778-3.117511 23.483734 9.375289 3.117511 24.234667-0.796444 58.663822 4.687644 17.2032 3.117511 28.148622-3.140267 30.492444-13.312 3.140267-24.234667-28.922311-51.6096-50.835911-56.32z m208.827733 57.116444c2.343822 10.171733 11.741867 16.429511 30.492445 13.289245 34.429156-5.461333 49.311289-1.570133 58.686577-4.687645 9.398044-3.140267 11.741867-17.976889-3.117511-23.460977-15.655822-5.484089-32.859022 1.547378-36.772978-2.343823-2.343822-3.140267 4.687644-9.398044 17.2032-11.741866 14.859378-3.140267 31.288889-4.687644 28.171378-14.859378-4.7104-16.429511-27.374933-17.2032-43.804444-13.312-22.687289 4.7104-54.772622 32.085333-50.858667 57.116444z" fill="#CDCDCD" p-id="2661"></path><path d="M524.743111 1001.244444A69.768533 69.768533 0 0 1 455.111111 931.612444V491.269689c0-7.054222 3.140267-13.312 7.827911-17.999645l197.108622-179.905422a25.258667 25.258667 0 0 1 16.429512-6.257778h560.082488c7.031467 0 12.515556 2.343822 16.429512 5.461334l195.538488 179.928178c4.7104 4.687644 8.6016 11.719111 8.6016 17.976888v440.388267a69.768533 69.768533 0 0 1-69.609244 69.632H524.720356V1001.244444z m-39.139555-69.632c0 21.139911 17.999644 38.343111 39.913244 38.343112h862.776889c21.139911 0 38.343111-16.429511 38.343111-38.320356V498.2784H1116.842667l-1.547378 9.375289c-5.484089 33.655467-21.9136 64.944356-47.7184 90.749155-30.5152 28.148622-68.835556 43.804444-109.522489 43.804445a159.152356 159.152356 0 0 1-109.499733-43.804445c-25.827556-23.460978-42.257067-55.523556-47.7184-90.749155l-1.570134-9.375289H485.626311V931.612444z m22.710044-458.365155h303.490844c6.257778 0 11.741867 6.257778 11.741867 12.515555 0 71.953067 61.781333 132.983467 134.530845 132.983467s134.5536-61.0304 134.5536-132.983467c0-7.054222 5.461333-12.515556 11.719111-12.515555h300.373333l-169.756444-156.444445H679.640178l-171.303822 156.444445z m127.499378-370.005333a52.087467 52.087467 0 0 1-51.655111-51.6096A52.087467 52.087467 0 0 1 635.835733 0a52.087467 52.087467 0 0 1 51.6096 51.632356 52.087467 52.087467 0 0 1-51.6096 51.632355z m0-87.608889a36.408889 36.408889 0 0 0-35.999289 35.999289 36.408889 36.408889 0 0 0 35.999289 35.976533 36.408889 36.408889 0 0 0 35.953778-35.976533 36.408889 36.408889 0 0 0-35.953778-35.976534z m541.2864 202.615466a34.724978 34.724978 0 0 1-34.4064-34.429155c0-18.773333 15.633067-34.4064 34.4064-34.4064s34.429156 15.633067 34.429155 34.4064-15.655822 34.429156-34.429155 34.429155z m0-52.406044a19.023644 19.023644 0 0 0-18.773334 18.773333c0 10.148978 8.6016 18.773333 18.773334 18.773334a19.023644 19.023644 0 0 0 18.773333-18.773334 19.023644 19.023644 0 0 0-18.773333-18.773333zM811.030756 175.217778c-4.7104 0-7.827911-3.117511-7.827912-7.827911V132.209778c0-4.687644 3.117511-7.805156 7.827912-7.805156 4.687644 0 7.805156 3.117511 7.805155 7.805156v35.202844a7.827911 7.827911 0 0 1-7.805155 7.827911z" fill="#CDCDCD" p-id="2662"></path><path d="M828.233956 157.240889H793.031111c-4.687644 0-7.827911-3.140267-7.827911-7.827911 0-4.7104 3.140267-7.827911 7.827911-7.827911h35.202845c4.687644 0 7.827911 3.117511 7.827911 7.827911 0 4.687644-3.140267 7.805156-7.827911 7.805155z m-302.717156 137.671111c-4.687644 0-7.827911-3.140267-7.827911-7.827911V218.225778c0-4.7104 3.140267-7.827911 7.827911-7.827911 4.687644 0 7.827911 3.117511 7.827911 7.827911v68.835555c0 4.687644-3.140267 7.805156-7.827911 7.805156z" fill="#CDCDCD" p-id="2663"></path><path d="M559.9232 260.482844h-68.835556c-4.687644 0-7.805156-3.140267-7.805155-7.827911 0-4.687644 3.117511-7.827911 7.805155-7.827911h68.835556c4.7104 0 7.827911 3.140267 7.827911 7.827911 0 4.687644-3.117511 7.827911-7.827911 7.827911z m818.221511 40.664178c-4.7104 0-7.827911-3.117511-7.827911-7.805155v-50.062223c0-4.7104 3.117511-7.827911 7.827911-7.827911 4.687644 0 7.805156 3.117511 7.805156 7.827911v50.062223c0 4.687644-3.117511 7.805156-7.805156 7.805155z" fill="#CDCDCD" p-id="2664"></path><path d="M1403.175822 276.115911h-50.062222c-4.7104 0-7.827911-3.117511-7.827911-7.805155 0-4.7104 3.117511-7.827911 7.827911-7.827912h50.062222c4.687644 0 7.805156 3.117511 7.805156 7.827912 0 4.687644-3.117511 7.805156-7.805156 7.805155zM1292.060444 165.842489c-4.687644 0-7.805156-3.140267-7.805155-7.827911V79.007289c0-4.687644 3.117511-7.827911 7.805155-7.827911 4.7104 0 7.827911 3.140267 7.827912 7.827911v79.007289c0 4.687644-3.117511 7.827911-7.827912 7.827911z" fill="#CDCDCD" p-id="2665"></path><path d="M1331.2 126.725689h-78.210844c-4.7104 0-7.827911-3.140267-7.827912-7.827911 0-4.687644 3.117511-7.827911 7.827912-7.827911H1331.2c4.687644 0 7.827911 3.140267 7.827911 7.827911 0 4.687644-3.140267 7.827911-7.827911 7.827911z" fill="#CDCDCD" p-id="2666"></path></svg>